<?xml version="1.0" encoding="utf-8"?>
<!-- Generator: Adobe Illustrator 22.0.0, SVG Export Plug-In . SVG Version: 6.00 Build 0)  -->
<svg version="1.1" id="Layer_1" xmlns="http://www.w3.org/2000/svg" xmlns:xlink="http://www.w3.org/1999/xlink" x="0px" y="0px"
	 viewBox="0 0 382 289" enable-background="new 0 0 382 289" xml:space="preserve">
<rect x="326.9" y="170" transform="matrix(0.7071 0.7071 -0.7071 0.7071 264.2578 -164.188)" fill="#B3F494" width="6.8" height="133.8"/>
<rect x="189.8" y="55.8" transform="matrix(0.7071 -0.7071 0.7071 0.7071 -77.471 192.1698)" fill="#16AD3B" width="6.8" height="267.5"/>
<rect x="142.5" y="-14.4" transform="matrix(0.7071 0.7071 -0.7071 0.7071 79.8717 -87.8128)" fill="#FFA264" width="6.8" height="133.8"/>
<rect x="279.6" y="-34" transform="matrix(0.7071 -0.7071 0.7071 0.7071 12.3218 229.3632)" fill="#FFE19D" width="6.8" height="267.5"/>
<polygon fill="#FFE19D" points="231.5,7.2 218.2,20.5 223,25.3 236.3,12 276.2,52 262.9,65.3 267.7,70.1 281,56.8 285.8,52 
	281,47.2 241.1,7.2 236.3,2.4 "/>
<polygon fill="#FFE19D" points="326.1,101.8 312.7,115.1 317.5,119.9 330.9,106.6 370.8,146.6 357.5,159.9 362.3,164.7 375.6,151.4 
	380.4,146.6 375.6,141.8 335.6,101.8 330.9,97 "/>
<rect x="75.2" y="235.9" transform="matrix(0.7071 -0.7071 0.7071 0.7071 -128.5688 168.191)" fill="#8FC2FA" width="127" height="6.8"/>
<rect x="48" y="170" transform="matrix(0.7071 -0.7071 0.7071 0.7071 -152.4725 105.6946)" fill="#008BF7" width="6.8" height="133.8"/>
<rect x="-14.5" y="146.1" transform="matrix(0.7071 -0.7071 0.7071 0.7071 -91.3759 78.3994)" fill="#FF6481" width="127" height="6.8"/>
</svg>
